# xmcd
#
# Track frame offsets: 
#        150
#        487
#        11894
#        27801
#        38575
#        53806
#        71068
#        81867
#        101985
#        116124
#        132119
#        148671
#        172359
#
# Disc length: 2509 seconds
#
# Revision: 0
# Processed by: cddbd v1.5.2PL0 Copyright (c) Steve Scherf et al.
# Submitted via: ExactAudioCopy v0.95a5
#
DISCID=b409cb0d
DTITLE=Pawel Szymanski - Poludniowy Wiatr
DYEAR=2012
DGENRE=Blues
TTITLE0=Mozemy juz grac
TTITLE1=Poludniowy wiatr
TTITLE2=Jest jak w niebie
TTITLE3=Hawaje
TTITLE4=Fortuna
TTITLE5=Do zycia trzeba miec talent
TTITLE6=Wczesnym rankiem w eremefce
TTITLE7=Jak sie masz bnracie
TTITLE8=Wsrod pachnacych traw
TTITLE9=Kiedy zostaniesz dobrym czlowiekiem
TTITLE10=Dom
TTITLE11=Kolysanka dla P
TTITLE12=Czekajac na A
EXTD=
EXTT0=
EXTT1=
EXTT2=
EXTT3=
EXTT4=
EXTT5=
EXTT6=
EXTT7=
EXTT8=
EXTT9=
EXTT10=
EXTT11=
EXTT12=
PLAYORDER=
